<svg xmlns="http://www.w3.org/2000/svg" xmlns:xlink="http://www.w3.org/1999/xlink" width="300" zoomAndPan="magnify" viewBox="0 0 224.87999 225" height="300" preserveAspectRatio="xMidYMid meet" version="1.0"><defs><g/><clipPath id="id1"><path d="M 7.144531 7.203125 L 217.78125 7.203125 L 217.78125 217.839844 L 7.144531 217.839844 Z M 7.144531 7.203125 " clip-rule="nonzero"/></clipPath></defs><g clip-path="url(#id1)"><path fill="#6c3a8a" d="M 204.082031 217.839844 L 20.839844 217.839844 C 13.292969 217.839844 7.144531 211.691406 7.144531 204.144531 L 7.144531 20.902344 C 7.144531 13.351562 13.292969 7.203125 20.839844 7.203125 L 204.082031 7.203125 C 211.628906 7.203125 217.78125 13.351562 217.78125 20.902344 L 217.78125 204.144531 C 217.78125 211.691406 211.628906 217.839844 204.082031 217.839844 " fill-opacity="1" fill-rule="nonzero"/></g><g fill="#ffffff" fill-opacity="1"><g transform="translate(35.112692, 165.044309)"><g><path d="M 108.015625 -107.234375 C 104.585938 -106.722656 102.066406 -105.84375 100.453125 -104.59375 C 98.847656 -103.34375 97.757812 -101.363281 97.1875 -98.65625 C 96.613281 -95.957031 96.328125 -91.960938 96.328125 -86.671875 L 96.328125 0.3125 L 92.59375 0.15625 L 88.375 0.3125 L 20.734375 -85.421875 L 20.734375 -25.5625 C 20.734375 -19.425781 21.046875 -14.929688 21.671875 -12.078125 C 22.296875 -9.222656 23.644531 -7.144531 25.71875 -5.84375 C 27.800781 -4.539062 31.175781 -3.632812 35.84375 -3.125 L 35.84375 0 C 31.789062 -0.3125 26.179688 -0.46875 19.015625 -0.46875 C 13.296875 -0.46875 8.773438 -0.3125 5.453125 0 L 5.453125 -3.125 C 8.878906 -3.632812 11.398438 -4.515625 13.015625 -5.765625 C 14.628906 -7.015625 15.71875 -8.988281 16.28125 -11.6875 C 16.851562 -14.394531 17.140625 -18.394531 17.140625 -23.6875 L 17.140625 -93.84375 C 17.140625 -97.789062 16.851562 -100.644531 16.28125 -102.40625 C 15.71875 -104.175781 14.628906 -105.375 13.015625 -106 C 11.398438 -106.625 8.878906 -107.035156 5.453125 -107.234375 L 5.453125 -110.359375 C 8.773438 -110.046875 13.296875 -109.890625 19.015625 -109.890625 C 24.210938 -109.890625 28.679688 -110.046875 32.421875 -110.359375 L 92.75 -36 L 92.75 -84.796875 C 92.75 -90.929688 92.4375 -95.425781 91.8125 -98.28125 C 91.1875 -101.132812 89.832031 -103.210938 87.75 -104.515625 C 85.675781 -105.816406 82.300781 -106.722656 77.625 -107.234375 L 77.625 -110.359375 C 81.675781 -110.046875 87.285156 -109.890625 94.453125 -109.890625 C 100.273438 -109.890625 104.796875 -110.046875 108.015625 -110.359375 Z M 108.015625 -107.234375 "/></g></g></g><g fill="#ffffff" fill-opacity="1"><g transform="translate(147.658402, 165.044309)"><g><path d="M 21.046875 -21.828125 C 25.097656 -21.828125 28.316406 -20.757812 30.703125 -18.625 C 33.097656 -16.5 34.296875 -13.5625 34.296875 -9.8125 C 34.296875 -6.070312 33.097656 -3.132812 30.703125 -1 C 28.316406 1.125 25.097656 2.1875 21.046875 2.1875 C 16.992188 2.1875 13.769531 1.125 11.375 -1 C 8.988281 -3.132812 7.796875 -6.070312 7.796875 -9.8125 C 7.796875 -13.5625 8.988281 -16.5 11.375 -18.625 C 13.769531 -20.757812 16.992188 -21.828125 21.046875 -21.828125 Z M 21.046875 -21.828125 "/></g></g></g></svg>